<?xml version="1.0" encoding="UTF-8" standalone="no"?>
<!DOCTYPE svg PUBLIC "-//W3C//DTD SVG 1.1//EN" "http://www.w3.org/Graphics/SVG/1.1/DTD/svg11.dtd">
<svg width="100%" height="100%" viewBox="0 0 1000 1000" version="1.1" xmlns="http://www.w3.org/2000/svg" xmlns:xlink="http://www.w3.org/1999/xlink" xml:space="preserve" xmlns:serif="http://www.serif.com/" style="fill-rule:evenodd;clip-rule:evenodd;stroke-linejoin:round;stroke-miterlimit:2;">
    <g transform="matrix(3.72028,0,0,3.72028,-1546.19,-776.523)">
        <path d="M581.756,302.43L638.432,302.43C638.218,259.604 605.193,231.266 552.353,231.266C500.471,231.266 463.824,259.178 464.144,300.726C464.037,334.816 487.688,353.779 526.359,362.089L548.092,366.776C572.381,372.103 580.691,378.175 580.904,388.083C580.691,398.842 570.89,406.406 551.927,406.406C529.235,406.406 515.812,395.753 514.853,375.725L458.604,375.725C458.817,430.483 495.891,454.985 552.779,454.985C608.07,454.985 641.201,431.122 641.414,388.083C641.201,354.844 621.386,331.514 573.233,321.18L555.336,317.345C534.669,312.977 525.4,306.905 525.933,296.464C526.039,286.876 534.029,279.845 552.353,279.845C571.529,279.845 580.584,288.261 581.756,302.43Z" style="fill:rgb(20,184,166);fill-rule:nonzero;"/>
    </g>
</svg>
