<svg width="1200" height="214" viewBox="0 0 1200 214" fill="none" xmlns="http://www.w3.org/2000/svg">
<path d="M337.102 159.084C328.872 159.084 320.739 157.584 312.703 154.582C304.667 151.581 297.502 147.417 291.208 142.092L305.151 123.938C311.348 128.973 317.06 132.604 322.288 134.83C327.517 136.961 333.084 138.026 338.99 138.026C342.863 138.026 346.155 137.638 348.866 136.864C351.577 136.089 353.659 134.976 355.111 133.523C356.564 131.974 357.29 130.183 357.29 128.15C357.29 125.342 356.225 123.163 354.095 121.614C351.964 120.065 348.334 118.855 343.202 117.983L320.836 114.062C312.606 112.61 306.264 109.463 301.811 104.622C297.357 99.7808 295.13 93.6326 295.13 86.1773C295.13 79.5934 296.776 73.9293 300.068 69.185C303.457 64.4407 308.249 60.8098 314.446 58.2925C320.739 55.7751 328.195 54.5164 336.812 54.5164C344.364 54.5164 351.964 55.8235 359.613 58.4377C367.262 60.9551 373.895 64.4891 379.51 69.0397L366.294 87.4844C355.837 79.4481 345.429 75.43 335.069 75.43C331.68 75.43 328.727 75.8173 326.21 76.5919C323.789 77.2696 321.901 78.2863 320.546 79.6418C319.287 80.9005 318.658 82.4496 318.658 84.2892C318.658 86.8066 319.577 88.7431 321.417 90.0986C323.353 91.4541 326.452 92.5191 330.712 93.2937L351.771 96.7793C361.55 98.3285 368.957 101.572 373.992 106.51C379.123 111.448 381.689 117.838 381.689 125.681C381.689 132.555 379.898 138.51 376.315 143.544C372.733 148.482 367.601 152.307 360.921 155.018C354.24 157.729 346.3 159.084 337.102 159.084ZM428.586 158.649C419.388 158.649 412.416 156.615 407.672 152.549C403.025 148.386 400.701 142.286 400.701 134.25V100.41H385.161V80.8036H400.701V61.0519L424.229 55.9687V80.8036H445.723V100.41H424.229V129.602C424.229 132.991 424.955 135.411 426.407 136.864C427.956 138.219 430.619 138.897 434.395 138.897C436.331 138.897 438.074 138.8 439.623 138.607C441.269 138.316 443.061 137.88 444.997 137.299V156.325C442.867 157.003 440.156 157.535 436.864 157.923C433.572 158.407 430.813 158.649 428.586 158.649ZM454.908 157.632V80.8036H478.436V88.501C480.953 85.4027 483.906 83.079 487.295 81.5298C490.684 79.8838 494.46 79.0608 498.623 79.0608C502.787 79.1577 505.74 79.787 507.483 80.9489V101.427C505.933 100.652 504.191 100.071 502.254 99.684C500.318 99.2967 498.333 99.103 496.3 99.103C492.62 99.103 489.183 99.9744 485.988 101.717C482.89 103.363 480.372 105.735 478.436 108.834V157.632H454.908ZM553.811 159.084C545.968 159.084 538.852 157.342 532.462 153.856C526.168 150.274 521.182 145.481 517.502 139.478C513.823 133.475 511.984 126.746 511.984 119.29C511.984 111.835 513.726 105.106 517.212 99.103C520.794 93.1001 525.636 88.3558 531.735 84.8702C537.835 81.2877 544.613 79.4965 552.068 79.4965C559.62 79.4965 566.301 81.3362 572.11 85.0154C577.92 88.5978 582.47 93.5358 585.762 99.8292C589.151 106.123 590.845 113.336 590.845 121.469V127.278H536.092C537.157 129.699 538.561 131.829 540.304 133.669C542.144 135.508 544.322 136.961 546.84 138.026C549.357 138.994 552.068 139.478 554.973 139.478C558.168 139.478 561.072 138.994 563.687 138.026C566.301 136.961 568.528 135.508 570.367 133.669L585.907 147.466C581.066 151.532 576.08 154.485 570.948 156.325C565.914 158.165 560.201 159.084 553.811 159.084ZM535.657 110.867H567.753C566.979 108.35 565.768 106.219 564.122 104.477C562.573 102.637 560.734 101.233 558.604 100.265C556.473 99.1999 554.15 98.6673 551.632 98.6673C549.018 98.6673 546.646 99.1514 544.516 100.12C542.386 101.088 540.546 102.492 538.997 104.331C537.545 106.074 536.431 108.253 535.657 110.867ZM626.388 158.939C620.966 158.939 616.125 157.923 611.864 155.889C607.701 153.856 604.409 151.048 601.989 147.466C599.665 143.883 598.503 139.768 598.503 135.121C598.503 127.762 601.262 122.098 606.781 118.129C612.397 114.062 620.191 112.029 630.164 112.029C636.167 112.029 641.976 112.755 647.592 114.207V110.431C647.592 106.558 646.333 103.702 643.816 101.862C641.395 99.926 637.764 98.9578 632.923 98.9578C629.922 98.9578 626.533 99.4419 622.757 100.41C619.078 101.378 614.721 102.928 609.686 105.058L601.262 87.7748C607.556 84.967 613.607 82.8853 619.417 81.5298C625.323 80.0775 631.229 79.3513 637.135 79.3513C647.785 79.3513 656.064 81.9171 661.97 87.0487C667.876 92.0834 670.829 99.1999 670.829 108.398V157.632H647.592V152.985C644.494 155.115 641.202 156.664 637.716 157.632C634.327 158.503 630.551 158.939 626.388 158.939ZM620.869 134.685C620.869 137.106 621.934 138.994 624.064 140.349C626.194 141.705 629.147 142.383 632.923 142.383C635.731 142.383 638.345 142.092 640.766 141.511C643.283 140.93 645.559 140.01 647.592 138.752V128.876C645.365 128.295 643.09 127.859 640.766 127.569C638.442 127.278 636.07 127.133 633.649 127.133C629.583 127.133 626.436 127.811 624.209 129.166C621.982 130.425 620.869 132.265 620.869 134.685ZM684.814 157.632V80.8036H708.341V85.7416C713.763 81.4814 720.154 79.3513 727.512 79.3513C732.353 79.3513 736.71 80.2711 740.583 82.1107C744.456 83.9504 747.7 86.5646 750.314 89.9533C753.412 86.5646 757.091 83.9504 761.352 82.1107C765.612 80.2711 770.259 79.3513 775.294 79.3513C781.103 79.3513 786.235 80.6584 790.689 83.2726C795.143 85.8868 798.628 89.5176 801.145 94.1651C803.76 98.8126 805.067 104.186 805.067 110.286V157.632H781.539V113.481C781.539 109.221 780.377 105.832 778.053 103.315C775.826 100.797 772.825 99.5387 769.049 99.5387C766.435 99.5387 764.063 100.023 761.932 100.991C759.802 101.959 757.963 103.412 756.414 105.348C756.51 106.123 756.559 106.946 756.559 107.817C756.656 108.592 756.704 109.415 756.704 110.286V157.632H733.176V113.481C733.176 109.221 732.014 105.832 729.691 103.315C727.464 100.797 724.462 99.5387 720.686 99.5387C718.072 99.5387 715.7 100.023 713.57 100.991C711.537 101.862 709.794 103.218 708.341 105.058V157.632H684.814ZM829.056 157.632V100.41H812.209V80.8036H829.056V76.1562C829.056 67.0549 831.719 60.1321 837.044 55.3878C842.466 50.5467 850.212 48.1261 860.282 48.1261C862.315 48.1261 864.493 48.2714 866.817 48.5618C869.238 48.7555 871.222 49.0944 872.772 49.5785V69.0397C870.932 68.6524 869.286 68.4104 867.834 68.3136C866.478 68.1199 865.026 68.0231 863.477 68.0231C859.894 68.0231 857.183 68.7493 855.344 70.2016C853.504 71.5571 852.584 73.6872 852.584 76.5919V80.8036H872.772V100.41H852.584V157.632H829.056ZM882.666 157.632V80.8036H906.193V157.632H882.666ZM894.43 73.6872C890.847 73.6872 887.797 72.4285 885.28 69.9111C882.762 67.3938 881.504 64.3438 881.504 60.7614C881.504 57.179 882.762 54.1291 885.28 51.6117C887.797 49.0943 890.847 47.8357 894.43 47.8357C898.012 47.8357 901.062 49.0943 903.579 51.6117C906.097 54.1291 907.355 57.179 907.355 60.7614C907.355 64.3438 906.097 67.3938 903.579 69.9111C901.062 72.4285 898.012 73.6872 894.43 73.6872ZM920.676 157.632V80.8036H944.204V86.032C950.013 81.5782 956.887 79.3513 964.827 79.3513C970.83 79.3513 976.107 80.6584 980.657 83.2726C985.305 85.8868 988.936 89.5176 991.55 94.1651C994.164 98.8126 995.471 104.186 995.471 110.286V157.632H971.943V113.481C971.943 109.221 970.685 105.832 968.167 103.315C965.65 100.797 962.261 99.5387 958.001 99.5387C954.999 99.5387 952.337 100.071 950.013 101.136C947.786 102.201 945.85 103.702 944.204 105.639V157.632H920.676ZM1009.46 157.632V80.8036H1032.99V157.632H1009.46ZM1021.23 73.6872C1017.64 73.6872 1014.59 72.4285 1012.08 69.9111C1009.56 67.3938 1008.3 64.3438 1008.3 60.7614C1008.3 57.179 1009.56 54.1291 1012.08 51.6117C1014.59 49.0943 1017.64 47.8357 1021.23 47.8357C1024.81 47.8357 1027.86 49.0943 1030.37 51.6117C1032.89 54.1291 1034.15 57.179 1034.15 60.7614C1034.15 64.3438 1032.89 67.3938 1030.37 69.9111C1027.86 72.4285 1024.81 73.6872 1021.23 73.6872ZM1086.25 158.649C1077.05 158.649 1070.08 156.615 1065.34 152.549C1060.69 148.386 1058.36 142.286 1058.36 134.25V100.41H1042.82V80.8036H1058.36V61.0519L1081.89 55.9687V80.8036H1103.39V100.41H1081.89V129.602C1081.89 132.991 1082.62 135.411 1084.07 136.864C1085.62 138.219 1088.28 138.897 1092.06 138.897C1093.99 138.897 1095.74 138.8 1097.29 138.607C1098.93 138.316 1100.72 137.88 1102.66 137.299V156.325C1100.53 157.003 1097.82 157.535 1094.53 157.923C1091.24 158.407 1088.48 158.649 1086.25 158.649ZM1123.14 189.002C1121.3 189.002 1119.51 188.906 1117.77 188.712C1116.02 188.615 1114.57 188.422 1113.41 188.131V168.089C1115.34 168.476 1117.77 168.67 1120.67 168.67C1128.22 168.67 1133.31 165.378 1135.92 158.794V158.649L1106.44 80.8036H1132.43L1149.43 129.166L1169.18 80.8036H1194.59L1160.17 161.553C1157.37 168.234 1154.27 173.559 1150.88 177.529C1147.49 181.596 1143.57 184.5 1139.11 186.243C1134.66 188.083 1129.34 189.002 1123.14 189.002Z" fill="#131722"/>
<path d="M53.1093 0.0401955L0 53.1315L159.888 212.965L212.997 159.873L53.1093 0.0401955Z" fill="#131722"/>
<path d="M159.854 213L212.735 159.75L159.854 106.852L54.1138 106.451L0.61377 159.927L53.7049 213H159.854Z" fill="url(#paint0_linear_2277_4353)"/>
<path d="M53.1475 0L0.267578 53.0731L53.1475 106.145L158.888 106.549L212.387 53.0731L159.296 0L53.1475 0Z" fill="url(#paint1_linear_2277_4353)"/>
<defs>
<linearGradient id="paint0_linear_2277_4353" x1="79.5826" y1="184.822" x2="48.8305" y2="110.116" gradientUnits="userSpaceOnUse">
<stop stop-color="#131722"/>
<stop offset="1" stop-color="#131722" stop-opacity="0"/>
</linearGradient>
<linearGradient id="paint1_linear_2277_4353" x1="133.415" y1="28.178" x2="164.167" y2="102.883" gradientUnits="userSpaceOnUse">
<stop stop-color="#131722"/>
<stop offset="1" stop-color="#131722" stop-opacity="0"/>
</linearGradient>
</defs>
</svg>
